<svg width="20" height="20" viewBox="0 0 20 20" fill="none" xmlns="http://www.w3.org/2000/svg">
<path d="M10 10.7775C11.2887 10.7775 12.3334 9.73284 12.3334 8.44417C12.3334 7.15551 11.2887 6.11084 10 6.11084C8.71136 6.11084 7.66669 7.15551 7.66669 8.44417C7.66669 9.73284 8.71136 10.7775 10 10.7775Z" stroke="black" stroke-width="1.55556" stroke-linecap="round" stroke-linejoin="round"/>
<path d="M10.0001 2.22205C8.34982 2.22205 6.76717 2.8776 5.60028 4.04449C4.43339 5.21139 3.77783 6.79403 3.77783 8.44427C3.77783 9.91582 4.0905 10.8787 4.9445 11.9443L10.0001 17.7776L15.0556 11.9443C15.9096 10.8787 16.2223 9.91582 16.2223 8.44427C16.2223 6.79403 15.5667 5.21139 14.3998 4.04449C13.2329 2.8776 11.6503 2.22205 10.0001 2.22205Z" stroke="black" stroke-width="1.55556" stroke-linecap="round" stroke-linejoin="round"/>
</svg>
