<svg width="67" height="67" viewBox="0 0 67 67" fill="none" xmlns="http://www.w3.org/2000/svg">
<path d="M43.5265 34.5532C42.9842 39.0687 40.0267 40.873 38.7493 42.1829C37.4701 43.4965 37.6992 43.7581 37.7851 45.6846C37.7995 45.9229 37.7648 46.1617 37.6834 46.3862C37.6019 46.6106 37.4754 46.816 37.3115 46.9897C37.1477 47.1634 36.95 47.3017 36.7306 47.3961C36.5113 47.4905 36.2749 47.539 36.0362 47.5385H30.9612C30.7225 47.5381 30.4865 47.4891 30.2674 47.3944C30.0484 47.2998 29.8509 47.1615 29.6871 46.988C29.5232 46.8145 29.3965 46.6095 29.3145 46.3854C29.2325 46.1613 29.1971 45.9228 29.2103 45.6846C29.2103 43.7943 29.386 43.3552 28.248 42.1829C26.7969 40.7318 23.383 38.683 23.383 33.0486C23.3743 31.6491 23.6556 30.2629 24.2092 28.9775C24.7628 27.692 25.5767 26.5352 26.5996 25.58C27.6224 24.6247 28.8321 23.8917 30.1523 23.4271C31.4726 22.9626 32.8747 22.7766 34.2704 22.8808C35.6661 22.9851 37.025 23.3773 38.2616 24.0328C39.4982 24.6883 40.5855 25.5929 41.4551 26.6895C42.3247 27.7862 42.9577 29.051 43.3142 30.4044C43.6707 31.7578 43.743 33.1704 43.5265 34.5532Z" stroke="black" stroke-width="1.5" stroke-linecap="round" stroke-linejoin="round"/>
<path d="M30.5587 47.4334V50.3203C30.5587 51.1088 30.9978 51.7561 31.5382 51.7561H35.458C36.0022 51.7561 36.4394 51.1069 36.4394 50.3203V47.4334M32.0098 27.309C30.8824 27.3095 29.8013 27.7577 29.0043 28.5551C28.2073 29.3524 27.7596 30.4337 27.7596 31.5611M47.4983 33.4341H51M43.9736 21.9552L46.4577 19.4712M45.883 43.1641L48.367 45.6462M33.499 15.2439V18.0754M20.5919 19.4693L23.0588 21.9552M18.6826 45.6462L21.1495 43.1641M19.4998 33.4341H16" stroke="black" stroke-width="1.5" stroke-linecap="round" stroke-linejoin="round"/>
</svg>
