<svg width="25" height="25" viewBox="0 0 25 25" fill="none" xmlns="http://www.w3.org/2000/svg">
<path d="M10.7998 3.25H4.7998C4.53459 3.25 4.28023 3.35536 4.0927 3.54289C3.90516 3.73043 3.7998 3.98478 3.7998 4.25V10.25C3.7998 10.5152 3.90516 10.7696 4.0927 10.9571C4.28023 11.1446 4.53459 11.25 4.7998 11.25H10.7998C11.065 11.25 11.3194 11.1446 11.5069 10.9571C11.6944 10.7696 11.7998 10.5152 11.7998 10.25V4.25C11.7998 3.98478 11.6944 3.73043 11.5069 3.54289C11.3194 3.35536 11.065 3.25 10.7998 3.25ZM20.7998 13.25H14.7998C14.5346 13.25 14.2802 13.3554 14.0927 13.5429C13.9052 13.7304 13.7998 13.9848 13.7998 14.25V20.25C13.7998 20.5152 13.9052 20.7696 14.0927 20.9571C14.2802 21.1446 14.5346 21.25 14.7998 21.25H20.7998C21.065 21.25 21.3194 21.1446 21.5069 20.9571C21.6944 20.7696 21.7998 20.5152 21.7998 20.25V14.25C21.7998 13.9848 21.6944 13.7304 21.5069 13.5429C21.3194 13.3554 21.065 13.25 20.7998 13.25ZM17.7998 3.25C15.5938 3.25 13.7998 5.044 13.7998 7.25C13.7998 9.456 15.5938 11.25 17.7998 11.25C20.0058 11.25 21.7998 9.456 21.7998 7.25C21.7998 5.044 20.0058 3.25 17.7998 3.25ZM7.7998 13.25C5.5938 13.25 3.7998 15.044 3.7998 17.25C3.7998 19.456 5.5938 21.25 7.7998 21.25C10.0058 21.25 11.7998 19.456 11.7998 17.25C11.7998 15.044 10.0058 13.25 7.7998 13.25Z" fill="black"/>
</svg>
