<svg width="45" height="45" viewBox="0 0 45 45" fill="none" xmlns="http://www.w3.org/2000/svg">
<path d="M22.286 4.30594C20.8017 4.31297 19.3849 4.43919 18.1375 4.65997C14.4637 5.30895 13.7971 6.66739 13.7971 9.17298V12.4815H22.4783V13.5844H10.5389C8.01605 13.5844 5.80683 15.1007 5.11566 17.9863C4.31831 21.2927 4.28316 23.3564 5.11566 26.8091C5.73265 29.3794 7.2064 31.2103 9.72956 31.2103H12.7147V27.244C12.7147 24.3784 15.1935 21.851 18.1379 21.851H26.8092C29.223 21.851 31.1496 19.8633 31.1496 17.4396V9.17333C31.1496 6.82032 29.1646 5.05301 26.8092 4.66032C25.3171 4.41212 23.7699 4.29926 22.286 4.30594ZM17.5912 6.96692C18.4877 6.96692 19.2203 7.71118 19.2203 8.62665C19.2203 9.53825 18.488 10.2755 17.5912 10.2755C16.6912 10.2755 15.9624 9.53825 15.9624 8.62665C15.9621 7.71118 16.6912 6.96692 17.5912 6.96692Z" fill="url(#paint0_linear_317_411)"/>
<path d="M32.2318 13.5843V17.4396C32.2318 20.4279 29.6977 22.9433 26.8086 22.9433H18.1373C15.7621 22.9433 13.7969 24.9764 13.7969 27.355V35.622C13.7969 37.9743 15.8423 39.3584 18.1373 40.0331C20.8851 40.8406 23.5204 40.9869 26.8086 40.0331C28.9939 39.3999 31.1489 38.1266 31.1489 35.622V32.3131H22.478V31.2099H35.49C38.0129 31.2099 38.9536 29.4504 39.8311 26.8087C40.7375 24.0894 40.6984 21.4741 39.8311 17.9859C39.2075 15.474 38.0167 13.584 35.49 13.584L32.2318 13.5843ZM27.3545 34.5188C28.2549 34.5188 28.9837 35.2561 28.9837 36.1684C28.9837 37.0831 28.2545 37.8274 27.3545 37.8274C26.458 37.8274 25.7257 37.0831 25.7257 36.1684C25.7257 35.2561 26.458 34.5188 27.3545 34.5188Z" fill="url(#paint1_linear_317_411)"/>
<path opacity="0.444" d="M34.2103 42.0458C34.2103 43.2914 29.0016 44.3014 22.5768 44.3014C16.1516 44.3014 10.9429 43.2914 10.9429 42.0458C10.9429 40.8002 16.1513 39.7898 22.5768 39.7898C29.0016 39.7898 34.2103 40.7995 34.2103 42.0458Z" fill="url(#paint2_radial_317_411)"/>
<defs>
<linearGradient id="paint0_linear_317_411" x1="3.63413" y1="5.34046" x2="23.6569" y2="22.4158" gradientUnits="userSpaceOnUse">
<stop stop-color="#5A9FD4"/>
<stop offset="1" stop-color="#306998"/>
</linearGradient>
<linearGradient id="paint1_linear_317_411" x1="31.19" y1="33.0301" x2="24.0095" y2="22.9606" gradientUnits="userSpaceOnUse">
<stop stop-color="#FFD43B"/>
<stop offset="1" stop-color="#FFE873"/>
</linearGradient>
<radialGradient id="paint2_radial_317_411" cx="0" cy="0" r="1" gradientUnits="userSpaceOnUse" gradientTransform="translate(22.5298 41.9812) rotate(-90) scale(2.25644 9.91894)">
<stop stop-color="#B8B8B8" stop-opacity="0.498"/>
<stop offset="1" stop-color="#7F7F7F" stop-opacity="0"/>
</radialGradient>
</defs>
</svg>
