<svg width="45" height="45" viewBox="0 0 45 45" fill="none" xmlns="http://www.w3.org/2000/svg">
<path d="M18.75 9.375C18.75 10.1137 18.6045 10.8451 18.3218 11.5276C18.0391 12.2101 17.6248 12.8301 17.1025 13.3525C16.5801 13.8748 15.9601 14.2891 15.2776 14.5718C14.5951 14.8545 13.8637 15 13.125 15C12.3863 15 11.6549 14.8545 10.9724 14.5718C10.2899 14.2891 9.66985 13.8748 9.14752 13.3525C8.6252 12.8301 8.21086 12.2101 7.92818 11.5276C7.6455 10.8451 7.5 10.1137 7.5 9.375C7.5 7.88316 8.09263 6.45242 9.14752 5.39752C10.2024 4.34263 11.6332 3.75 13.125 3.75C14.6168 3.75 16.0476 4.34263 17.1025 5.39752C18.1574 6.45242 18.75 7.88316 18.75 9.375ZM22.5 26.25C23.2387 26.25 23.9701 26.1045 24.6526 25.8218C25.3351 25.5391 25.9551 25.1248 26.4775 24.6025C26.9998 24.0801 27.4141 23.4601 27.6968 22.7776C27.9795 22.0951 28.125 21.3637 28.125 20.625C28.125 19.8863 27.9795 19.1549 27.6968 18.4724C27.4141 17.7899 26.9998 17.1699 26.4775 16.6475C25.9551 16.1252 25.3351 15.7109 24.6526 15.4282C23.9701 15.1455 23.2387 15 22.5 15C21.0082 15 19.5774 15.5926 18.5225 16.6475C17.4676 17.7024 16.875 19.1332 16.875 20.625C16.875 22.1168 17.4676 23.5476 18.5225 24.6025C19.5774 25.6574 21.0082 26.25 22.5 26.25ZM13.3125 18.75H7.5C6.50544 18.75 5.55161 19.1451 4.84835 19.8484C4.14509 20.5516 3.75 21.5054 3.75 22.5V23.2762C3.75 25.5112 5.03625 27.3487 6.73875 28.5525C7.75875 29.2762 8.9775 29.8125 10.3088 30.1275C11.3175 28.2975 13.0687 26.94 15.1537 26.4487C14.3017 25.3787 13.6951 24.1345 13.3769 22.8041C13.0588 21.4738 13.0368 20.0898 13.3125 18.75ZM29.85 26.4487C30.8687 26.6895 31.8258 27.1409 32.6596 27.7738C33.4934 28.4068 34.1854 29.2072 34.6913 30.1238C36.0225 29.8125 37.2412 29.2762 38.2612 28.5525C39.9637 27.3525 41.25 25.5112 41.25 23.2762V22.5C41.25 21.5054 40.8549 20.5516 40.1516 19.8484C39.4484 19.1451 38.4946 18.75 37.5 18.75H31.6875C31.9586 20.0897 31.9346 21.4724 31.6173 22.8019C31.3 24.1314 30.6969 25.3759 29.85 26.4487ZM16.875 30C15.8804 30 14.9266 30.3951 14.2233 31.0984C13.5201 31.8016 13.125 32.7554 13.125 33.75V34.3762C13.125 36.5775 14.4637 38.3438 16.155 39.4688C17.8612 40.6125 20.1112 41.25 22.5 41.25C24.8888 41.25 27.1388 40.6087 28.845 39.4688C30.5325 38.3438 31.875 36.5775 31.875 34.3762V33.75C31.875 32.7554 31.4799 31.8016 30.7766 31.0984C30.0734 30.3951 29.1196 30 28.125 30H16.875ZM33.75 15C35.2418 15 36.6726 14.4074 37.7275 13.3525C38.7824 12.2976 39.375 10.8668 39.375 9.375C39.375 7.88316 38.7824 6.45242 37.7275 5.39752C36.6726 4.34263 35.2418 3.75 33.75 3.75C32.2582 3.75 30.8274 4.34263 29.7725 5.39752C28.7176 6.45242 28.125 7.88316 28.125 9.375C28.125 10.8668 28.7176 12.2976 29.7725 13.3525C30.8274 14.4074 32.2582 15 33.75 15Z" fill="#156089"/>
</svg>
