<svg width="45" height="45" viewBox="0 0 45 45" fill="none" xmlns="http://www.w3.org/2000/svg">
<path d="M41.3071 2.8125H35.4431C32.4731 2.8125 29.5438 3.23297 26.7342 4.04156L23.9329 8.49938L19.7057 7.03125C18.0801 7.97023 16.5416 9.05267 15.1087 10.2656C12.1467 12.7769 9.76712 15.9029 8.1352 19.4266C6.50328 22.9503 5.6582 26.7871 5.65869 30.6703V35.2406C5.65869 35.2406 5.89775 34.8187 6.34775 34.1016C6.22119 34.6359 6.16494 34.9313 6.16494 34.9313V35.2406H11.6774C14.6024 35.2406 17.4149 34.5797 19.9603 33.3562C20.2556 33.2156 20.2556 32.7937 19.9603 32.6531L16.9087 31.2328C16.7259 31.1766 16.7821 30.9375 16.9649 30.9375H23.3353C23.6306 30.9375 23.9118 30.825 24.1368 30.6422C26.0071 29.0391 27.5821 27.0703 28.7353 24.8062C29.1571 23.9625 29.9587 22.4578 30.3946 21.6422C30.5774 21.3047 30.5634 20.8969 30.3665 20.5594L28.454 17.4094C28.4218 17.3564 28.4041 17.2959 28.4028 17.2339C28.4015 17.172 28.4166 17.1107 28.4466 17.0565C28.4766 17.0022 28.5204 16.9569 28.5735 16.925C28.6267 16.8931 28.6873 16.8759 28.7493 16.875L30.9051 15.4772L33.7795 12.6675L37.6607 9.85219C38.9912 7.98897 40.4196 6.1977 41.9399 4.48594C42.1228 4.28906 42.2212 4.02188 42.2212 3.75469C42.2244 3.63245 42.2031 3.51082 42.1587 3.39691C42.1142 3.283 42.0475 3.17912 41.9623 3.09136C41.8772 3.0036 41.7754 2.93373 41.6628 2.88584C41.5503 2.83796 41.4294 2.81302 41.3071 2.8125Z" fill="#156089"/>
<path d="M19.6875 16.875H32.5041C32.8697 16.875 33.2212 16.6781 33.4041 16.3687C34.7259 14.1609 36.1603 11.9531 37.6791 9.84374H26.7244V4.04999C24.2635 4.75622 21.8998 5.76518 19.6875 7.05374V16.875Z" fill="#156089"/>
<path d="M35.5557 5.82188C35.474 5.66095 35.3335 5.53762 35.1634 5.47741C34.9932 5.4172 34.8064 5.42473 34.6417 5.49844C28.1729 8.40938 22.3511 12.4453 17.2886 17.4938C11.9475 22.8237 7.68799 29.1365 4.74481 36.0844C4.03221 37.7743 3.39871 39.4965 2.84637 41.2453C2.71981 41.6672 2.95887 42.1031 3.38075 42.1734C3.74637 42.2438 4.08387 42.0188 4.18231 41.6813C4.71669 39.9797 5.33544 38.2922 6.03856 36.6328C8.90731 29.8406 13.0276 23.7234 18.2729 18.4922C23.2089 13.5563 28.8901 9.63282 35.2042 6.79219C35.2935 6.75453 35.374 6.69881 35.4408 6.62855C35.5075 6.55828 35.559 6.47497 35.592 6.38386C35.625 6.29274 35.6388 6.19579 35.6326 6.09908C35.6264 6.00237 35.6002 5.908 35.5557 5.82188C35.5557 5.83594 35.5557 5.83594 35.5557 5.82188Z" fill="white"/>
</svg>
