<svg width="20" height="21" viewBox="0 0 20 21" fill="none" xmlns="http://www.w3.org/2000/svg">
<path d="M20 4.25V16.75H1.25V14.25H0V3H17.5V4.25H20ZM15 4.25C15 4.42578 15.0326 4.58854 15.0977 4.73828C15.1628 4.88802 15.2507 5.01823 15.3613 5.12891C15.472 5.23958 15.6055 5.33073 15.7617 5.40234C15.918 5.47396 16.0807 5.50651 16.25 5.5V4.25H15ZM1.25 5.5C1.42578 5.5 1.58854 5.46745 1.73828 5.40234C1.88802 5.33724 2.01823 5.24935 2.12891 5.13867C2.23958 5.02799 2.33073 4.89453 2.40234 4.73828C2.47396 4.58203 2.50651 4.41927 2.5 4.25H1.25V5.5ZM1.25 10.5C1.59505 10.5 1.91732 10.5651 2.2168 10.6953C2.51628 10.8255 2.7832 11.0046 3.01758 11.2324C3.25195 11.4603 3.43099 11.724 3.55469 12.0234C3.67839 12.3229 3.74349 12.6484 3.75 13H13.75C13.75 12.6549 13.8151 12.3327 13.9453 12.0332C14.0755 11.7337 14.2546 11.4668 14.4824 11.2324C14.7103 10.998 14.974 10.819 15.2734 10.6953C15.5729 10.5716 15.8984 10.5065 16.25 10.5V6.75C15.9049 6.75 15.5827 6.6849 15.2832 6.55469C14.9837 6.42448 14.7168 6.24544 14.4824 6.01758C14.248 5.78971 14.069 5.52604 13.9453 5.22656C13.8216 4.92708 13.7565 4.60156 13.75 4.25H3.75C3.75 4.59505 3.6849 4.91732 3.55469 5.2168C3.42448 5.51628 3.24544 5.7832 3.01758 6.01758C2.78971 6.25195 2.52604 6.43099 2.22656 6.55469C1.92708 6.67839 1.60156 6.74349 1.25 6.75V10.5ZM16.25 11.75C16.0742 11.75 15.9115 11.7826 15.7617 11.8477C15.612 11.9128 15.4818 12.0007 15.3711 12.1113C15.2604 12.222 15.1693 12.3555 15.0977 12.5117C15.026 12.668 14.9935 12.8307 15 13H16.25V11.75ZM1.25 13H2.5C2.5 12.8242 2.46745 12.6615 2.40234 12.5117C2.33724 12.362 2.24935 12.2318 2.13867 12.1211C2.02799 12.0104 1.89453 11.9193 1.73828 11.8477C1.58203 11.776 1.41927 11.7435 1.25 11.75V13ZM18.75 5.5H17.5V14.25H2.5V15.5H18.75V5.5ZM4.375 9.25C4.20573 9.25 4.05924 9.18815 3.93555 9.06445C3.81185 8.94076 3.75 8.79427 3.75 8.625C3.75 8.45573 3.81185 8.30924 3.93555 8.18555C4.05924 8.06185 4.20573 8 4.375 8C4.54427 8 4.69076 8.06185 4.81445 8.18555C4.93815 8.30924 5 8.45573 5 8.625C5 8.79427 4.93815 8.94076 4.81445 9.06445C4.69076 9.18815 4.54427 9.25 4.375 9.25ZM13.125 9.25C12.9557 9.25 12.8092 9.18815 12.6855 9.06445C12.5618 8.94076 12.5 8.79427 12.5 8.625C12.5 8.45573 12.5618 8.30924 12.6855 8.18555C12.8092 8.06185 12.9557 8 13.125 8C13.2943 8 13.4408 8.06185 13.5645 8.18555C13.6882 8.30924 13.75 8.45573 13.75 8.625C13.75 8.79427 13.6882 8.94076 13.5645 9.06445C13.4408 9.18815 13.2943 9.25 13.125 9.25ZM8.75 11.75C8.40495 11.75 8.08268 11.6849 7.7832 11.5547C7.48372 11.4245 7.2168 11.2454 6.98242 11.0176C6.74805 10.7897 6.56901 10.526 6.44531 10.2266C6.32161 9.92708 6.25651 9.60156 6.25 9.25V8C6.25 7.65495 6.3151 7.33268 6.44531 7.0332C6.57552 6.73372 6.75456 6.4668 6.98242 6.23242C7.21029 5.99805 7.47396 5.81901 7.77344 5.69531C8.07292 5.57161 8.39844 5.50651 8.75 5.5C9.09505 5.5 9.41732 5.5651 9.7168 5.69531C10.0163 5.82552 10.2832 6.00456 10.5176 6.23242C10.752 6.46029 10.931 6.72396 11.0547 7.02344C11.1784 7.32292 11.2435 7.64844 11.25 8V9.25C11.25 9.59505 11.1849 9.91732 11.0547 10.2168C10.9245 10.5163 10.7454 10.7832 10.5176 11.0176C10.2897 11.252 10.026 11.431 9.72656 11.5547C9.42708 11.6784 9.10156 11.7435 8.75 11.75ZM7.5 9.25C7.5 9.42578 7.53255 9.58854 7.59766 9.73828C7.66276 9.88802 7.75065 10.0182 7.86133 10.1289C7.97201 10.2396 8.10547 10.3307 8.26172 10.4023C8.41797 10.474 8.58073 10.5065 8.75 10.5C8.92578 10.5 9.08854 10.4674 9.23828 10.4023C9.38802 10.3372 9.51823 10.2493 9.62891 10.1387C9.73958 10.028 9.83073 9.89453 9.90234 9.73828C9.97396 9.58203 10.0065 9.41927 10 9.25V8C10 7.82422 9.96745 7.66146 9.90234 7.51172C9.83724 7.36198 9.74935 7.23177 9.63867 7.12109C9.528 7.01042 9.39453 6.91927 9.23828 6.84766C9.08203 6.77604 8.91927 6.74349 8.75 6.75C8.57422 6.75 8.41146 6.78255 8.26172 6.84766C8.11198 6.91276 7.98177 7.00065 7.87109 7.11133C7.76042 7.22201 7.66927 7.35547 7.59766 7.51172C7.52604 7.66797 7.49349 7.83073 7.5 8V9.25Z" fill="black"/>
</svg>
