<svg width="45" height="45" viewBox="0 0 64 64" fill="none" xmlns="http://www.w3.org/2000/svg">
          <rect width="64" height="64" rx="32" fill=""/>
          <path d="M48 32C48 34.1011 47.5892 36.1816 46.7911 38.1227C45.9929 40.0638 44.823 41.8275 43.3483 43.3131C41.8735 44.7987 40.1227 45.9771 38.1959 46.7809C36.269 47.5848 34.2039 47.9985 32.1184 47.9982C30.0131 48.0298 27.9226 47.6394 25.9684 46.8496C24.0143 46.0598 22.2355 44.8864 20.7356 43.3977C19.2357 41.909 18.0447 40.1347 17.2317 38.178C16.4187 36.2213 16 34.1212 16 32C16 29.8788 16.4187 27.7787 17.2317 25.822C18.0447 23.8653 19.2357 22.091 20.7356 20.6023C22.2355 19.1136 24.0143 17.9402 25.9684 17.1504C27.9226 16.3606 30.0131 15.9702 32.1184 16.0018M47.2113 16.8355L37.394 26.685M47.2113 16.8355C46.3379 15.9556 40.45 16.0356 39.2061 16.0533M47.2113 16.8355C48.0847 17.7154 48.0035 23.6436 47.9859 24.8986" stroke="#ffffff" stroke-width="4" stroke-linecap="round" stroke-linejoin="round"/>
          </svg>