<svg width="20" height="21" viewBox="0 0 20 21" fill="none" xmlns="http://www.w3.org/2000/svg">
<path d="M9.17283 18H8.00449C5.01699 18 3.52366 18 2.59533 17.0541C1.66699 16.1083 1.66699 14.5858 1.66699 11.5416C1.66699 8.49748 1.66699 6.97498 2.59533 6.02915C3.52366 5.08331 5.01699 5.08331 8.00449 5.08331H11.1737C14.1612 5.08331 15.6553 5.08331 16.5837 6.02915C17.2978 6.75665 17.462 7.82581 17.5003 9.66665" stroke="black" stroke-width="1.25" stroke-linecap="round" stroke-linejoin="round"/>
<path d="M16.6815 17.1858L18.334 18.8333M13.334 5.08332L13.2507 4.82499C12.8382 3.54166 12.6323 2.89999 12.1415 2.53332C11.6498 2.16666 10.9982 2.16666 9.69232 2.16666H9.47315C8.16898 2.16666 7.51648 2.16666 7.02565 2.53332C6.53398 2.89999 6.32815 3.54166 5.91565 4.82499L5.83398 5.08332M17.5448 15.105C17.5514 14.7149 17.4802 14.3274 17.3355 13.9651C17.1908 13.6028 16.9753 13.273 16.7018 12.9948C16.4283 12.7166 16.1021 12.4956 15.7423 12.3448C15.3824 12.194 14.9962 12.1163 14.6061 12.1163C14.2159 12.1163 13.8297 12.194 13.4699 12.3448C13.1101 12.4956 12.7839 12.7166 12.5103 12.9948C12.2368 13.273 12.0214 13.6028 11.8766 13.9651C11.7319 14.3274 11.6607 14.7149 11.6673 15.105C11.6803 15.8758 11.9956 16.6107 12.5453 17.1512C13.095 17.6918 13.8351 17.9947 14.6061 17.9947C15.377 17.9947 16.1171 17.6918 16.6668 17.1512C17.2165 16.6107 17.5318 15.8758 17.5448 15.105Z" stroke="black" stroke-width="1.25" stroke-linecap="round" stroke-linejoin="round"/>
</svg>
