<svg width="15" height="16" viewBox="0 0 15 16" fill="none" xmlns="http://www.w3.org/2000/svg">
<path d="M8.49458 8L11.2778 5.2168C11.4099 5.08494 11.4842 4.90601 11.4843 4.71937C11.4845 4.53273 11.4105 4.35367 11.2787 4.22158C11.1468 4.08949 10.9679 4.01519 10.7812 4.01503C10.5946 4.01486 10.4155 4.08885 10.2834 4.2207L7.50024 7.00391L4.71704 4.2207C4.58495 4.08861 4.4058 4.0144 4.21899 4.0144C4.03219 4.0144 3.85304 4.08861 3.72095 4.2207C3.58886 4.35279 3.51465 4.53195 3.51465 4.71875C3.51465 4.90555 3.58886 5.08471 3.72095 5.2168L6.50415 8L3.72095 10.7832C3.58886 10.9153 3.51465 11.0944 3.51465 11.2812C3.51465 11.4681 3.58886 11.6472 3.72095 11.7793C3.85304 11.9114 4.03219 11.9856 4.21899 11.9856C4.4058 11.9856 4.58495 11.9114 4.71704 11.7793L7.50024 8.99609L10.2834 11.7793C10.4155 11.9114 10.5947 11.9856 10.7815 11.9856C10.9683 11.9856 11.1474 11.9114 11.2795 11.7793C11.4116 11.6472 11.4858 11.4681 11.4858 11.2812C11.4858 11.0944 11.4116 10.9153 11.2795 10.7832L8.49458 8Z" fill="black"/>
</svg>
