<svg width="520" height="527" viewBox="0 0 520 527" fill="none" xmlns="http://www.w3.org/2000/svg">
<circle cx="422.5" cy="403.5" r="348.5" fill="#E9F5FC"/>
<circle cx="404" cy="385" r="219" fill="#A7D7F1"/>
<circle cx="415.5" cy="382.5" r="118.5" fill="#7AC3EB"/>
<g filter="url(#filter0_d_333_2746)">
<rect x="43" y="378" width="61" height="61" rx="30.5" fill="white"/>
<path d="M73.286 390.306C71.8017 390.313 70.3849 390.439 69.1375 390.66C65.4637 391.309 64.7971 392.667 64.7971 395.173V398.482H73.4783V399.584H61.5389C59.016 399.584 56.8068 401.101 56.1157 403.986C55.3183 407.293 55.2832 409.356 56.1157 412.809C56.7326 415.379 58.2064 417.21 60.7296 417.21H63.7147V413.244C63.7147 410.378 66.1935 407.851 69.1379 407.851H77.8092C80.223 407.851 82.1496 405.863 82.1496 403.44V395.173C82.1496 392.82 80.1646 391.053 77.8092 390.66C76.3171 390.412 74.7699 390.299 73.286 390.306ZM68.5912 392.967C69.4877 392.967 70.2203 393.711 70.2203 394.627C70.2203 395.538 69.488 396.275 68.5912 396.275C67.6912 396.275 66.9624 395.538 66.9624 394.627C66.9621 393.711 67.6912 392.967 68.5912 392.967Z" fill="url(#paint0_linear_333_2746)"/>
<path d="M83.2318 399.584V403.44C83.2318 406.428 80.6977 408.943 77.8086 408.943H69.1373C66.7621 408.943 64.7969 410.976 64.7969 413.355V421.622C64.7969 423.974 66.8423 425.358 69.1373 426.033C71.8851 426.841 74.5204 426.987 77.8086 426.033C79.9939 425.4 82.1489 424.127 82.1489 421.622V418.313H73.478V417.21H86.49C89.0129 417.21 89.9536 415.45 90.8311 412.809C91.7375 410.089 91.6984 407.474 90.8311 403.986C90.2075 401.474 89.0167 399.584 86.49 399.584L83.2318 399.584ZM78.3545 420.519C79.2549 420.519 79.9837 421.256 79.9837 422.168C79.9837 423.083 79.2545 423.827 78.3545 423.827C77.458 423.827 76.7257 423.083 76.7257 422.168C76.7257 421.256 77.458 420.519 78.3545 420.519Z" fill="url(#paint1_linear_333_2746)"/>
<path opacity="0.444" d="M85.2103 428.046C85.2103 429.291 80.0016 430.301 73.5768 430.301C67.1516 430.301 61.9429 429.291 61.9429 428.046C61.9429 426.8 67.1513 425.79 73.5768 425.79C80.0016 425.79 85.2103 426.799 85.2103 428.046Z" fill="url(#paint2_radial_333_2746)"/>
</g>
<g filter="url(#filter1_d_333_2746)">
<rect x="198" y="216" width="44" height="58" rx="22" fill="white"/>
<g clip-path="url(#clip0_333_2746)">
<path d="M213 266C216.864 266 220 262.864 220 259V252H213C209.136 252 206 255.136 206 259C206 262.864 209.136 266 213 266Z" fill="#0ACF83"/>
<path d="M206 245C206 241.136 209.136 238 213 238H220V252H213C209.136 252 206 248.864 206 245Z" fill="#A259FF"/>
<path d="M206 231C206 227.136 209.136 224 213 224H220V238H213C209.136 238 206 234.864 206 231Z" fill="#F24E1E"/>
<path d="M220 224H227C230.864 224 234 227.136 234 231C234 234.864 230.864 238 227 238H220V224Z" fill="#FF7262"/>
<path d="M234 245C234 248.864 230.864 252 227 252C223.136 252 220 248.864 220 245C220 241.136 223.136 238 227 238C230.864 238 234 241.136 234 245Z" fill="#1ABCFE"/>
</g>
</g>
<g filter="url(#filter2_d_333_2746)">
<rect x="340" y="39" width="48" height="48" rx="24" fill="white"/>
<g clip-path="url(#clip1_333_2746)">
<path d="M359.148 48.0525C355.95 49.1617 353.193 51.2669 351.281 54.059C349.368 56.8511 348.402 60.1829 348.523 63.5649C348.644 66.947 349.846 70.201 351.954 72.8492C354.061 75.4973 356.962 77.3999 360.23 78.2775C362.88 78.9612 365.656 78.9913 368.32 78.365C370.734 77.8229 372.965 76.6634 374.795 75C376.7 73.2159 378.083 70.9462 378.795 68.435C379.569 65.7042 379.707 62.8323 379.198 60.04H364.318V66.2125H372.935C372.763 67.197 372.394 68.1366 371.85 68.9751C371.306 69.8136 370.599 70.5338 369.77 71.0925C368.718 71.7886 367.532 72.2569 366.288 72.4675C365.04 72.6995 363.76 72.6995 362.513 72.4675C361.248 72.2061 360.052 71.6841 359 70.935C357.311 69.739 356.042 68.0398 355.375 66.08C354.697 64.0835 354.697 61.919 355.375 59.9225C355.85 58.523 356.634 57.2488 357.67 56.195C358.856 54.9669 360.357 54.089 362.008 53.6577C363.66 53.2264 365.398 53.2583 367.033 53.75C368.31 54.142 369.477 54.8268 370.443 55.75C371.414 54.7833 372.384 53.8142 373.353 52.8425C373.853 52.32 374.398 51.8225 374.89 51.2875C373.417 49.9162 371.687 48.8491 369.8 48.1475C366.364 46.9 362.605 46.8664 359.148 48.0525Z" fill="white"/>
<path d="M359.147 48.0525C362.605 46.8656 366.364 46.8983 369.8 48.145C371.687 48.8514 373.416 49.9236 374.887 51.3C374.387 51.835 373.86 52.335 373.35 52.855C372.38 53.8233 371.411 54.7883 370.442 55.75C369.477 54.8268 368.309 54.142 367.032 53.75C365.398 53.2566 363.66 53.2228 362.008 53.6523C360.356 54.0819 358.854 54.9581 357.667 56.185C356.632 57.2388 355.847 58.513 355.372 59.9125L350.19 55.9C352.045 52.2214 355.257 49.4075 359.147 48.0525Z" fill="#E33629"/>
<path d="M348.815 59.875C349.093 58.4945 349.556 57.1576 350.19 55.9L355.372 59.9225C354.694 61.919 354.694 64.0835 355.372 66.08C353.646 67.4134 351.918 68.7534 350.19 70.1C348.603 66.9408 348.119 63.3413 348.815 59.875Z" fill="#F8BD00"/>
<path d="M364.318 60.0375H379.198C379.707 62.8298 379.569 65.7016 378.795 68.4325C378.083 70.9437 376.7 73.2133 374.795 74.9975C373.123 73.6925 371.443 72.3975 369.77 71.0925C370.599 70.5332 371.307 69.8122 371.851 68.9728C372.395 68.1334 372.763 67.1928 372.935 66.2075H364.318C364.315 64.1525 364.318 62.095 364.318 60.0375Z" fill="#587DBD"/>
<path d="M350.188 70.1C351.916 68.7666 353.643 67.4266 355.37 66.08C356.038 68.0405 357.309 69.7397 359 70.935C360.055 71.6806 361.254 72.1983 362.52 72.455C363.768 72.6869 365.047 72.6869 366.295 72.455C367.539 72.2444 368.725 71.776 369.778 71.08C371.45 72.385 373.13 73.68 374.803 74.985C372.972 76.6493 370.741 77.8097 368.328 78.3525C365.664 78.9787 362.887 78.9487 360.238 78.265C358.142 77.7054 356.184 76.7189 354.488 75.3675C352.692 73.9417 351.225 72.1449 350.188 70.1Z" fill="#319F43"/>
</g>
</g>
<g clip-path="url(#clip2_333_2746)">
<rect x="245" y="389.617" width="193" height="40" rx="20" transform="rotate(-22.4225 245 389.617)" fill="#A7D7F1"/>
<path d="M271.749 406.706C271.473 406.82 271.211 406.83 270.965 406.735C270.724 406.627 270.55 406.445 270.445 406.188L266.917 397.639C266.811 397.383 266.808 397.136 266.906 396.9C267.01 396.649 267.191 396.471 267.447 396.365L272.254 394.381C272.51 394.276 272.757 394.272 272.994 394.37C273.236 394.455 273.41 394.625 273.516 394.882C273.606 395.099 273.596 395.328 273.488 395.568C273.39 395.805 273.212 395.976 272.956 396.082L268.962 397.73L269.022 397.498L270.249 400.471L270.066 400.321L273.364 398.96C273.621 398.854 273.867 398.851 274.104 398.949C274.347 399.034 274.521 399.204 274.627 399.46C274.716 399.677 274.707 399.906 274.598 400.147C274.5 400.384 274.322 400.555 274.066 400.661L270.738 402.034L270.816 401.846L272.293 405.425C272.399 405.682 272.395 405.937 272.281 406.192C272.173 406.433 271.995 406.604 271.749 406.706ZM281.364 393.478C281.621 393.372 281.869 393.374 282.11 393.482C282.347 393.58 282.518 393.758 282.624 394.014L284.174 397.771C284.605 398.816 284.656 399.764 284.327 400.616C283.997 401.467 283.285 402.119 282.191 402.57C281.096 403.022 280.132 403.062 279.298 402.691C278.474 402.315 277.846 401.605 277.415 400.56L275.865 396.803C275.759 396.547 275.755 396.3 275.854 396.063C275.948 395.817 276.123 395.641 276.38 395.535C276.636 395.429 276.885 395.43 277.126 395.539C277.362 395.637 277.534 395.814 277.639 396.071L279.19 399.828C279.438 400.429 279.756 400.823 280.144 401.009C280.529 401.185 280.987 401.163 281.519 400.943C282.062 400.72 282.407 400.41 282.555 400.014C282.699 399.608 282.647 399.105 282.399 398.503L280.849 394.747C280.743 394.49 280.74 394.244 280.838 394.007C280.932 393.76 281.108 393.584 281.364 393.478ZM288.989 398.536C289.094 398.793 289.095 399.046 288.991 399.297C288.892 399.534 288.715 399.705 288.459 399.811C288.212 399.913 287.97 399.914 287.734 399.816C287.493 399.707 287.32 399.525 287.214 399.269L283.442 390.128C283.336 389.872 283.333 389.625 283.431 389.389C283.535 389.138 283.716 388.96 283.972 388.854C284.228 388.748 284.472 388.751 284.703 388.864C284.94 388.962 285.111 389.14 285.217 389.396L288.989 398.536ZM292.975 396.891C293.081 397.148 293.082 397.401 292.977 397.652C292.879 397.889 292.701 398.06 292.445 398.166C292.199 398.268 291.957 398.269 291.72 398.171C291.479 398.062 291.306 397.88 291.2 397.624L287.429 388.483C287.323 388.227 287.319 387.98 287.418 387.744C287.522 387.493 287.702 387.315 287.958 387.209C288.215 387.103 288.459 387.106 288.69 387.219C288.926 387.317 289.098 387.495 289.203 387.751L292.975 396.891ZM294.584 393.008C294.328 393.114 294.076 393.12 293.829 393.025C293.593 392.927 293.421 392.749 293.316 392.493C293.21 392.237 293.208 391.995 293.311 391.768C293.419 391.527 293.601 391.354 293.858 391.248L296.431 390.186C296.688 390.08 296.936 390.082 297.177 390.19C297.424 390.284 297.6 390.46 297.706 390.716C297.807 390.963 297.804 391.206 297.696 391.447C297.593 391.674 297.414 391.84 297.157 391.946L294.584 393.008ZM304.812 393.236C304.122 393.521 303.466 393.693 302.845 393.754C302.219 393.804 301.566 393.716 300.884 393.49C300.711 393.434 300.561 393.351 300.435 393.242C300.309 393.132 300.218 393.009 300.161 392.87C300.067 392.644 300.065 392.414 300.153 392.181C300.248 391.935 300.418 391.76 300.665 391.659C300.852 391.581 301.044 391.571 301.241 391.629C301.742 391.78 302.207 391.859 302.637 391.866C303.077 391.869 303.568 391.759 304.11 391.535C304.475 391.385 304.788 391.192 305.049 390.957C305.306 390.713 305.489 390.458 305.599 390.194C305.705 389.919 305.707 389.659 305.605 389.412C305.483 389.117 305.291 388.902 305.028 388.768C304.765 388.634 304.423 388.573 304.001 388.586C303.575 388.588 303.065 388.666 302.47 388.819C301.905 388.96 301.388 389.035 300.919 389.044C300.445 389.043 300.02 388.977 299.642 388.844C299.27 388.698 298.946 388.485 298.669 388.207C298.389 387.919 298.161 387.563 297.986 387.139C297.722 386.498 297.659 385.883 297.797 385.296C297.945 384.704 298.251 384.173 298.715 383.705C299.18 383.236 299.752 382.862 300.433 382.581C301.074 382.316 301.706 382.171 302.329 382.144C302.959 382.104 303.507 382.16 303.974 382.314C304.354 382.423 304.605 382.625 304.727 382.921C304.816 383.138 304.814 383.369 304.72 383.616C304.625 383.863 304.465 384.033 304.238 384.126C304.09 384.187 303.938 384.198 303.783 384.158C303.569 384.085 303.304 384.044 302.989 384.036C302.67 384.018 302.346 384.03 302.018 384.073C301.685 384.106 301.391 384.176 301.134 384.282C300.71 384.457 300.373 384.659 300.122 384.89C299.881 385.116 299.725 385.354 299.654 385.602C299.584 385.851 299.599 386.098 299.701 386.345C299.823 386.64 300.008 386.852 300.257 386.98C300.512 387.094 300.827 387.144 301.201 387.128C301.571 387.102 302.001 387.04 302.491 386.941C303.128 386.806 303.698 386.72 304.203 386.685C304.718 386.646 305.172 386.683 305.565 386.798C305.955 386.903 306.296 387.102 306.591 387.396C306.881 387.68 307.13 388.074 307.338 388.576C307.602 389.217 307.652 389.843 307.489 390.453C307.325 391.063 307.003 391.611 306.523 392.097C306.053 392.58 305.482 392.959 304.812 393.236ZM306.985 383.079L310.49 381.633C310.727 381.535 310.957 381.533 311.18 381.625C311.402 381.718 311.563 381.883 311.66 382.119C311.754 382.346 311.754 382.571 311.662 382.794C311.565 383.007 311.398 383.162 311.162 383.26L307.656 384.706C307.42 384.804 307.19 384.806 306.967 384.714C306.744 384.621 306.584 384.456 306.486 384.22C306.393 383.993 306.394 383.773 306.491 383.56C306.584 383.337 306.748 383.177 306.985 383.079ZM307.805 380.577C308.061 380.472 308.305 380.475 308.536 380.587C308.772 380.686 308.944 380.863 309.05 381.12L311.765 387.701C311.822 387.839 311.894 387.943 311.98 388.011C312.075 388.075 312.176 388.109 312.281 388.112C312.396 388.11 312.507 388.087 312.616 388.043C312.734 387.994 312.835 387.929 312.917 387.849C312.995 387.759 313.098 387.688 313.227 387.635C313.365 387.578 313.514 387.591 313.676 387.675C313.847 387.754 313.979 387.907 314.073 388.134C314.187 388.41 314.127 388.7 313.895 389.003C313.672 389.303 313.389 389.524 313.044 389.666C312.836 389.752 312.599 389.833 312.33 389.909C312.067 389.971 311.796 389.985 311.516 389.95C311.243 389.902 310.975 389.77 310.713 389.555C310.451 389.34 310.22 388.991 310.021 388.508L307.275 381.852C307.169 381.596 307.165 381.349 307.264 381.112C307.368 380.862 307.548 380.683 307.805 380.577ZM319.304 377.65C319.561 377.544 319.807 377.54 320.044 377.639C320.281 377.737 320.454 377.92 320.564 378.186L323.145 384.442C323.251 384.699 323.257 384.95 323.163 385.197C323.064 385.433 322.887 385.605 322.63 385.711C322.374 385.816 322.127 385.82 321.891 385.722C321.65 385.613 321.476 385.431 321.371 385.175L321.072 384.45L321.452 384.449C321.505 384.577 321.501 384.763 321.44 385.007C321.375 385.242 321.261 385.497 321.098 385.772C320.934 386.047 320.716 386.316 320.444 386.578C320.177 386.827 319.857 387.028 319.482 387.183C318.801 387.464 318.114 387.545 317.419 387.428C316.721 387.301 316.083 386.999 315.505 386.522C314.933 386.031 314.482 385.386 314.153 384.587C313.819 383.779 313.684 383.004 313.747 382.262C313.816 381.507 314.051 380.844 314.451 380.276C314.847 379.697 315.375 379.271 316.036 378.999C316.46 378.824 316.875 378.727 317.283 378.709C317.691 378.69 318.064 378.727 318.402 378.818C318.749 378.906 319.035 379.024 319.258 379.175C319.488 379.311 319.631 379.448 319.688 379.586L319.235 379.998L318.789 378.918C318.683 378.662 318.68 378.415 318.778 378.178C318.872 377.932 319.048 377.756 319.304 377.65ZM319.032 385.464C319.466 385.285 319.801 385.02 320.037 384.669C320.273 384.318 320.402 383.918 320.425 383.47C320.458 383.018 320.379 382.561 320.187 382.097C319.992 381.624 319.723 381.239 319.382 380.941C319.049 380.64 318.676 380.448 318.261 380.365C317.846 380.282 317.422 380.331 316.988 380.51C316.564 380.685 316.234 380.948 315.998 381.299C315.762 381.65 315.628 382.052 315.595 382.504C315.572 382.951 315.659 383.412 315.854 383.885C316.045 384.349 316.307 384.731 316.639 385.033C316.981 385.33 317.359 385.52 317.774 385.603C318.189 385.685 318.608 385.639 319.032 385.464ZM325.633 375.038C326.195 374.806 326.708 374.664 327.171 374.611C327.644 374.555 328.038 374.588 328.355 374.712C328.677 374.821 328.899 375.024 329.021 375.319C329.102 375.517 329.12 375.728 329.075 375.955C329.026 376.171 328.888 376.326 328.661 376.42C328.504 376.485 328.362 376.52 328.238 376.525C328.119 376.517 328.005 376.494 327.898 376.458C327.791 376.421 327.671 376.396 327.538 376.381C327.415 376.363 327.244 376.382 327.024 376.437C326.811 376.479 326.655 376.521 326.556 376.561C326.053 376.769 325.669 377.054 325.404 377.418C325.148 377.777 325.004 378.183 324.971 378.635C324.934 379.077 325.016 379.539 325.215 380.023C325.41 380.496 325.679 380.881 326.021 381.179C326.369 381.462 326.755 381.643 327.18 381.722C327.614 381.796 328.053 381.742 328.497 381.559C328.744 381.457 328.95 381.355 329.115 381.252C329.28 381.149 329.41 381.044 329.504 380.936C329.609 380.8 329.698 380.665 329.77 380.532C329.841 380.398 329.986 380.287 330.203 380.197C330.459 380.092 330.691 380.094 330.898 380.205C331.101 380.305 331.252 380.474 331.349 380.711C331.451 380.957 331.407 381.241 331.216 381.562C331.021 381.873 330.724 382.186 330.323 382.502C329.928 382.803 329.469 383.062 328.947 383.277C328.168 383.599 327.419 383.7 326.701 383.581C325.978 383.452 325.331 383.142 324.759 382.651C324.197 382.156 323.758 381.524 323.44 380.755C323.107 379.946 322.976 379.169 323.049 378.424C323.128 377.664 323.388 376.992 323.827 376.407C324.272 375.808 324.874 375.351 325.633 375.038ZM334.159 380.954C333.902 381.059 333.656 381.063 333.419 380.965C333.178 380.856 333.005 380.674 332.899 380.418L329.128 371.277C329.022 371.021 329.018 370.774 329.117 370.537C329.211 370.291 329.386 370.114 329.643 370.009C329.899 369.903 330.148 369.904 330.388 370.013C330.625 370.111 330.797 370.288 330.902 370.545L334.674 379.685C334.78 379.942 334.785 380.193 334.691 380.44C334.593 380.676 334.415 380.848 334.159 380.954ZM335.597 371.1C335.824 371.006 336.06 371.019 336.305 371.137C336.55 371.255 336.709 371.403 336.782 371.58C336.88 371.817 336.853 372.088 336.702 372.392L333.94 378.326L333.024 376.316L335.062 371.65C335.172 371.385 335.351 371.202 335.597 371.1ZM339.078 378.906C338.822 379.012 338.564 379.003 338.305 378.879L334.373 377.109L335.206 375.312L339.064 377.112C339.333 377.232 339.518 377.415 339.62 377.662C339.726 377.918 339.71 378.173 339.572 378.426C339.44 378.665 339.275 378.825 339.078 378.906ZM346.002 363.951C346.712 363.658 347.398 363.53 348.06 363.569C348.722 363.607 349.34 363.791 349.915 364.119C350.494 364.434 351.008 364.868 351.456 365.422C351.909 365.961 352.283 366.586 352.576 367.296C352.97 368.253 353.158 369.197 353.138 370.128C353.114 371.049 352.868 371.878 352.398 372.614C351.939 373.346 351.231 373.909 350.275 374.304L346.74 375.762C346.483 375.868 346.232 375.874 345.985 375.779C345.744 375.671 345.571 375.489 345.465 375.232L341.938 366.684C341.832 366.427 341.828 366.181 341.927 365.944C342.031 365.693 342.211 365.515 342.468 365.409L346.002 363.951ZM349.425 372.664C350.046 372.408 350.489 372.04 350.753 371.562C351.013 371.074 351.124 370.532 351.086 369.936C351.054 369.326 350.909 368.711 350.653 368.09C350.462 367.626 350.226 367.21 349.947 366.84C349.673 366.457 349.363 366.152 349.016 365.926C348.665 365.691 348.283 365.548 347.87 365.499C347.458 365.45 347.02 365.521 346.556 365.712L343.968 366.78L344.061 366.586L347.051 373.834L346.896 373.707L349.425 372.664ZM360.166 370.395C359.328 370.741 358.527 370.87 357.763 370.781C357.006 370.678 356.335 370.395 355.752 369.932C355.178 369.465 354.735 368.852 354.421 368.092C354.055 367.205 353.921 366.377 354.02 365.61C354.124 364.828 354.398 364.15 354.842 363.574C355.285 362.999 355.832 362.577 356.483 362.309C356.986 362.101 357.502 362.009 358.031 362.033C358.57 362.053 359.087 362.174 359.583 362.397C360.075 362.609 360.517 362.912 360.909 363.304C361.312 363.692 361.623 364.152 361.842 364.684C361.93 364.925 361.916 365.156 361.799 365.377C361.683 365.598 361.506 365.757 361.27 365.855L355.62 368.186L354.566 366.89L359.994 364.651L359.79 365.081L359.626 364.681C359.488 364.404 359.279 364.19 358.998 364.04C358.727 363.887 358.427 363.803 358.098 363.789C357.775 363.761 357.46 363.81 357.154 363.936C356.859 364.058 356.599 364.211 356.375 364.396C356.151 364.58 355.984 364.805 355.874 365.07C355.764 365.334 355.72 365.647 355.742 366.007C355.763 366.367 355.874 366.789 356.073 367.272C356.293 367.805 356.589 368.214 356.96 368.499C357.338 368.77 357.739 368.933 358.166 368.988C358.598 369.029 359.012 368.968 359.406 368.805C359.771 368.654 360.049 368.505 360.242 368.356C360.434 368.207 360.579 368.067 360.674 367.935C360.776 367.79 360.868 367.665 360.952 367.561C361.093 367.399 361.243 367.286 361.4 367.22C361.617 367.131 361.825 367.132 362.024 367.223C362.233 367.309 362.378 367.452 362.46 367.649C362.57 367.915 362.531 368.213 362.345 368.544C362.178 368.867 361.897 369.208 361.503 369.567C361.105 369.916 360.659 370.192 360.166 370.395ZM362.12 360.156C362.307 360.079 362.5 360.057 362.698 360.09C362.893 360.114 363.068 360.203 363.224 360.358L367.449 364.43L367.184 364.713L367.297 358.694C367.302 358.231 367.486 357.936 367.849 357.809C368.096 357.707 368.326 357.705 368.539 357.802C368.758 357.884 368.914 358.039 369.007 358.266C369.036 358.335 369.051 358.415 369.054 358.506C369.067 358.593 369.073 358.677 369.072 358.758L368.821 365.993C368.809 366.413 368.635 366.704 368.298 366.867C368.123 366.973 367.926 367.014 367.708 366.989C367.5 366.959 367.309 366.859 367.135 366.689L361.869 361.731C361.829 361.689 361.778 361.635 361.716 361.569C361.664 361.498 361.615 361.408 361.57 361.3C361.497 361.123 361.505 360.917 361.593 360.685C361.678 360.442 361.853 360.266 362.12 360.156ZM377.051 363.428C376.213 363.774 375.412 363.903 374.648 363.814C373.89 363.711 373.22 363.428 372.636 362.965C372.063 362.498 371.619 361.885 371.306 361.125C370.94 360.238 370.806 359.41 370.905 358.643C371.009 357.861 371.283 357.183 371.726 356.607C372.17 356.032 372.717 355.61 373.368 355.342C373.871 355.134 374.387 355.042 374.916 355.066C375.455 355.086 375.972 355.207 376.468 355.43C376.959 355.642 377.401 355.945 377.794 356.337C378.196 356.724 378.507 357.185 378.727 357.717C378.815 357.958 378.8 358.189 378.684 358.41C378.568 358.631 378.391 358.79 378.154 358.888L372.504 361.219L371.45 359.923L376.878 357.684L376.675 358.114L376.51 357.714C376.373 357.436 376.163 357.223 375.882 357.073C375.611 356.92 375.311 356.836 374.982 356.822C374.659 356.793 374.345 356.842 374.039 356.969C373.743 357.091 373.483 357.244 373.26 357.429C373.036 357.613 372.869 357.838 372.759 358.103C372.649 358.367 372.605 358.68 372.626 359.04C372.648 359.4 372.759 359.822 372.958 360.305C373.178 360.838 373.473 361.246 373.845 361.532C374.222 361.803 374.624 361.966 375.051 362.021C375.483 362.062 375.896 362.001 376.291 361.838C376.655 361.687 376.934 361.538 377.127 361.389C377.319 361.24 377.463 361.1 377.559 360.968C377.66 360.823 377.753 360.698 377.837 360.594C377.978 360.432 378.127 360.318 378.285 360.253C378.502 360.164 378.71 360.165 378.909 360.255C379.118 360.342 379.263 360.484 379.344 360.682C379.454 360.948 379.416 361.246 379.229 361.577C379.063 361.9 378.782 362.241 378.388 362.6C377.989 362.949 377.544 363.225 377.051 363.428ZM383.537 359.523C383.643 359.779 383.644 360.033 383.539 360.283C383.441 360.52 383.263 360.692 383.007 360.797C382.761 360.899 382.519 360.901 382.282 360.802C382.041 360.694 381.868 360.512 381.762 360.255L377.991 351.115C377.885 350.858 377.881 350.612 377.98 350.375C378.084 350.124 378.264 349.946 378.52 349.84C378.777 349.734 379.02 349.738 379.251 349.85C379.488 349.949 379.66 350.126 379.765 350.382L383.537 359.523ZM391.875 352.517C392.209 353.325 392.321 354.115 392.213 354.887C392.11 355.645 391.824 356.322 391.355 356.92C390.896 357.513 390.292 357.964 389.543 358.274C388.793 358.583 388.042 358.691 387.288 358.598C386.544 358.501 385.864 358.222 385.247 357.762C384.635 357.287 384.163 356.645 383.829 355.837C383.496 355.028 383.38 354.245 383.483 353.487C383.591 352.715 383.875 352.033 384.334 351.44C384.799 350.832 385.406 350.374 386.156 350.065C386.905 349.756 387.654 349.654 388.402 349.761C389.155 349.854 389.838 350.138 390.449 350.613C391.066 351.073 391.542 351.708 391.875 352.517ZM390.1 353.249C389.893 352.746 389.61 352.355 389.253 352.076C388.901 351.782 388.51 351.603 388.079 351.539C387.658 351.47 387.241 351.521 386.827 351.692C386.413 351.863 386.076 352.123 385.816 352.472C385.566 352.818 385.415 353.221 385.363 353.681C385.316 354.127 385.397 354.601 385.604 355.104C385.808 355.597 386.085 355.99 386.437 356.284C386.795 356.563 387.184 356.737 387.604 356.806C388.035 356.871 388.457 356.818 388.871 356.647C389.286 356.476 389.618 356.218 389.867 355.872C390.127 355.523 390.28 355.125 390.327 354.679C390.379 354.219 390.304 353.742 390.1 353.249ZM395.829 346.073C396.519 345.789 397.209 345.712 397.897 345.843C398.592 345.96 399.223 346.26 399.791 346.741C400.369 347.218 400.824 347.861 401.158 348.669C401.491 349.478 401.624 350.26 401.555 351.015C401.491 351.757 401.262 352.417 400.866 352.995C400.476 353.56 399.946 353.981 399.275 354.258C398.881 354.42 398.485 354.509 398.087 354.523C397.689 354.537 397.316 354.501 396.968 354.413C396.63 354.322 396.347 354.208 396.118 354.072C395.894 353.922 395.754 353.778 395.697 353.64L396.076 353.258L397.681 357.148C397.787 357.405 397.791 357.651 397.692 357.888C397.598 358.135 397.422 358.311 397.166 358.417C396.91 358.522 396.663 358.526 396.426 358.428C396.19 358.329 396.016 358.147 395.906 357.881L392.165 348.814C392.059 348.558 392.056 348.311 392.154 348.074C392.249 347.828 392.424 347.651 392.68 347.546C392.937 347.44 393.185 347.441 393.426 347.55C393.663 347.648 393.834 347.825 393.94 348.082L394.239 348.806L393.933 348.777C393.88 348.649 393.886 348.468 393.951 348.233C394.011 347.989 394.123 347.729 394.287 347.454C394.446 347.169 394.654 346.904 394.911 346.66C395.178 346.411 395.484 346.216 395.829 346.073ZM396.278 347.792C395.844 347.971 395.51 348.236 395.274 348.587C395.038 348.938 394.904 349.34 394.871 349.792C394.844 350.23 394.928 350.686 395.123 351.159C395.315 351.622 395.578 352.01 395.914 352.321C396.256 352.619 396.635 352.809 397.05 352.891C397.465 352.974 397.889 352.926 398.323 352.747C398.757 352.568 399.087 352.305 399.313 351.957C399.548 351.606 399.678 351.207 399.701 350.759C399.729 350.297 399.648 349.834 399.457 349.371C399.262 348.898 398.995 348.517 398.657 348.23C398.325 347.928 397.952 347.736 397.537 347.654C397.132 347.567 396.712 347.613 396.278 347.792ZM408.134 350.602C407.295 350.948 406.495 351.077 405.731 350.988C404.973 350.885 404.303 350.602 403.719 350.139C403.146 349.672 402.702 349.059 402.389 348.3C402.023 347.412 401.889 346.585 401.988 345.817C402.092 345.035 402.366 344.357 402.809 343.782C403.253 343.206 403.8 342.784 404.451 342.516C404.953 342.308 405.469 342.217 405.999 342.241C406.538 342.261 407.055 342.382 407.551 342.604C408.042 342.817 408.484 343.119 408.877 343.511C409.279 343.899 409.59 344.359 409.81 344.891C409.898 345.132 409.883 345.363 409.767 345.584C409.65 345.805 409.474 345.965 409.237 346.062L403.587 348.394L402.533 347.098L407.961 344.858L407.758 345.288L407.593 344.889C407.455 344.611 407.246 344.397 406.965 344.248C406.694 344.094 406.394 344.01 406.065 343.996C405.742 343.968 405.428 344.017 405.122 344.143C404.826 344.265 404.566 344.418 404.342 344.603C404.119 344.788 403.952 345.012 403.842 345.277C403.732 345.542 403.687 345.854 403.709 346.214C403.731 346.575 403.842 346.996 404.041 347.479C404.261 348.012 404.556 348.421 404.928 348.706C405.305 348.977 405.707 349.14 406.133 349.195C406.566 349.236 406.979 349.175 407.373 349.012C407.738 348.862 408.017 348.712 408.209 348.563C408.402 348.415 408.546 348.274 408.642 348.143C408.743 347.997 408.836 347.872 408.92 347.768C409.061 347.606 409.21 347.493 409.368 347.428C409.585 347.338 409.793 347.339 409.992 347.43C410.201 347.517 410.346 347.659 410.427 347.856C410.537 348.122 410.499 348.421 410.312 348.751C410.145 349.074 409.865 349.415 409.471 349.774C409.072 350.123 408.627 350.399 408.134 350.602ZM413.957 348.027C413.7 348.132 413.454 348.136 413.217 348.038C412.976 347.929 412.803 347.747 412.697 347.491L410.177 341.382C410.071 341.126 410.067 340.879 410.166 340.642C410.26 340.396 410.435 340.219 410.692 340.114C410.948 340.008 411.197 340.009 411.438 340.118C411.674 340.216 411.846 340.393 411.951 340.65L412.525 342.04L412.013 341.092C412.023 340.81 412.076 340.546 412.17 340.3C412.271 340.039 412.405 339.805 412.573 339.597C412.737 339.379 412.93 339.19 413.152 339.029C413.374 338.868 413.608 338.737 413.855 338.635C414.151 338.513 414.432 338.495 414.698 338.582C414.974 338.664 415.159 338.818 415.253 339.045C415.387 339.37 415.401 339.642 415.294 339.859C415.184 340.066 415.03 340.21 414.833 340.292C414.645 340.369 414.458 340.406 414.272 340.402C414.096 340.394 413.909 340.43 413.712 340.512C413.534 340.585 413.37 340.705 413.22 340.871C413.075 341.023 412.96 341.22 412.875 341.463C412.801 341.701 412.769 341.974 412.78 342.281C412.797 342.574 412.879 342.898 413.025 343.253L414.472 346.758C414.578 347.015 414.583 347.266 414.489 347.513C414.391 347.749 414.213 347.921 413.957 348.027Z" fill="black"/>
</g>
<rect x="245.326" y="389.752" width="192.5" height="39.5" rx="19.75" transform="rotate(-22.4225 245.326 389.752)" stroke="black" stroke-width="0.5"/>
<defs>
<filter id="filter0_d_333_2746" x="0.599998" y="339.6" width="145.8" height="145.8" filterUnits="userSpaceOnUse" color-interpolation-filters="sRGB">
<feFlood flood-opacity="0" result="BackgroundImageFix"/>
<feColorMatrix in="SourceAlpha" type="matrix" values="0 0 0 0 0 0 0 0 0 0 0 0 0 0 0 0 0 0 127 0" result="hardAlpha"/>
<feMorphology radius="2" operator="dilate" in="SourceAlpha" result="effect1_dropShadow_333_2746"/>
<feOffset dy="4"/>
<feGaussianBlur stdDeviation="20.2"/>
<feComposite in2="hardAlpha" operator="out"/>
<feColorMatrix type="matrix" values="0 0 0 0 0 0 0 0 0 0 0 0 0 0 0 0 0 0 0.25 0"/>
<feBlend mode="normal" in2="BackgroundImageFix" result="effect1_dropShadow_333_2746"/>
<feBlend mode="normal" in="SourceGraphic" in2="effect1_dropShadow_333_2746" result="shape"/>
</filter>
<filter id="filter1_d_333_2746" x="155.6" y="177.6" width="128.8" height="142.8" filterUnits="userSpaceOnUse" color-interpolation-filters="sRGB">
<feFlood flood-opacity="0" result="BackgroundImageFix"/>
<feColorMatrix in="SourceAlpha" type="matrix" values="0 0 0 0 0 0 0 0 0 0 0 0 0 0 0 0 0 0 127 0" result="hardAlpha"/>
<feMorphology radius="2" operator="dilate" in="SourceAlpha" result="effect1_dropShadow_333_2746"/>
<feOffset dy="4"/>
<feGaussianBlur stdDeviation="20.2"/>
<feComposite in2="hardAlpha" operator="out"/>
<feColorMatrix type="matrix" values="0 0 0 0 0 0 0 0 0 0 0 0 0 0 0 0 0 0 0.25 0"/>
<feBlend mode="normal" in2="BackgroundImageFix" result="effect1_dropShadow_333_2746"/>
<feBlend mode="normal" in="SourceGraphic" in2="effect1_dropShadow_333_2746" result="shape"/>
</filter>
<filter id="filter2_d_333_2746" x="297.6" y="0.599998" width="132.8" height="132.8" filterUnits="userSpaceOnUse" color-interpolation-filters="sRGB">
<feFlood flood-opacity="0" result="BackgroundImageFix"/>
<feColorMatrix in="SourceAlpha" type="matrix" values="0 0 0 0 0 0 0 0 0 0 0 0 0 0 0 0 0 0 127 0" result="hardAlpha"/>
<feMorphology radius="2" operator="dilate" in="SourceAlpha" result="effect1_dropShadow_333_2746"/>
<feOffset dy="4"/>
<feGaussianBlur stdDeviation="20.2"/>
<feComposite in2="hardAlpha" operator="out"/>
<feColorMatrix type="matrix" values="0 0 0 0 0 0 0 0 0 0 0 0 0 0 0 0 0 0 0.25 0"/>
<feBlend mode="normal" in2="BackgroundImageFix" result="effect1_dropShadow_333_2746"/>
<feBlend mode="normal" in="SourceGraphic" in2="effect1_dropShadow_333_2746" result="shape"/>
</filter>
<linearGradient id="paint0_linear_333_2746" x1="54.6341" y1="391.34" x2="74.6569" y2="408.416" gradientUnits="userSpaceOnUse">
<stop stop-color="#5A9FD4"/>
<stop offset="1" stop-color="#306998"/>
</linearGradient>
<linearGradient id="paint1_linear_333_2746" x1="82.19" y1="419.03" x2="75.0095" y2="408.961" gradientUnits="userSpaceOnUse">
<stop stop-color="#FFD43B"/>
<stop offset="1" stop-color="#FFE873"/>
</linearGradient>
<radialGradient id="paint2_radial_333_2746" cx="0" cy="0" r="1" gradientUnits="userSpaceOnUse" gradientTransform="translate(73.5298 427.981) rotate(-90) scale(2.25644 9.91894)">
<stop stop-color="#B8B8B8" stop-opacity="0.498"/>
<stop offset="1" stop-color="#7F7F7F" stop-opacity="0"/>
</radialGradient>
<clipPath id="clip0_333_2746">
<rect width="28" height="42" fill="white" transform="translate(206 224)"/>
</clipPath>
<clipPath id="clip1_333_2746">
<rect width="32" height="32" fill="white" transform="translate(348 47)"/>
</clipPath>
<clipPath id="clip2_333_2746">
<rect x="245" y="389.617" width="193" height="40" rx="20" transform="rotate(-22.4225 245 389.617)" fill="white"/>
</clipPath>
</defs>
</svg>
