<svg width="45" height="45" viewBox="0 0 45 45" fill="none" xmlns="http://www.w3.org/2000/svg">
<path d="M22.0289 16.5094C20.7809 16.5087 19.5784 16.9782 18.6609 17.8242C18.476 17.6678 18.2423 17.5807 18 17.5781C17.251 17.5845 16.508 17.4435 15.8133 17.1633C16.7981 15.8793 17.4024 14.3444 17.557 12.7336H18.0211C18.3008 12.7336 18.5691 12.6225 18.7669 12.4247C18.9647 12.2269 19.0758 11.9586 19.0758 11.6789C19.0758 11.3992 18.9647 11.1309 18.7669 10.9331C18.5691 10.7354 18.3008 10.6242 18.0211 10.6242H15.0047V8.98595C15.0047 8.70623 14.8936 8.43797 14.6958 8.24017C14.498 8.04238 14.2297 7.93126 13.95 7.93126C13.6703 7.93126 13.402 8.04238 13.2042 8.24017C13.0064 8.43797 12.8953 8.70623 12.8953 8.98595V10.6313H9.90001C9.62029 10.6313 9.35202 10.7424 9.15423 10.9402C8.95644 11.138 8.84532 11.4062 8.84532 11.686C8.84532 11.9657 8.95644 12.2339 9.15423 12.4317C9.35202 12.6295 9.62029 12.7406 9.90001 12.7406H15.4125C15.2696 13.9121 14.802 15.0202 14.0625 15.9399C13.5265 15.3353 13.107 14.6368 12.825 13.8797C12.7866 13.7399 12.7198 13.6095 12.6288 13.4967C12.5378 13.3839 12.4245 13.291 12.296 13.224C12.1674 13.1569 12.0265 13.117 11.8819 13.1069C11.7373 13.0967 11.5921 13.1165 11.4555 13.1649C11.3188 13.2134 11.1937 13.2895 11.0878 13.3885C10.9819 13.4875 10.8975 13.6072 10.8399 13.7403C10.7824 13.8733 10.7529 14.0168 10.7533 14.1618C10.7537 14.3068 10.7839 14.4501 10.8422 14.5828C11.1878 15.5119 11.6895 16.3751 12.3258 17.1352C11.5579 17.4258 10.7421 17.569 9.9211 17.557C9.64138 17.557 9.37312 17.6682 9.17533 17.866C8.97753 18.0637 8.86641 18.332 8.86641 18.6117C8.86641 18.8915 8.97753 19.1597 9.17533 19.3575C9.37312 19.5553 9.64138 19.6664 9.9211 19.6664C11.3674 19.7147 12.7994 19.367 14.0625 18.661C15.0684 19.2632 16.2041 19.6152 17.3742 19.6875C17.1368 20.2751 17.015 20.903 17.0156 21.5367V22.3242H9.68204C9.52997 22.3238 9.37961 22.3562 9.24125 22.4193C9.1029 22.4825 8.97983 22.5747 8.88048 22.6899C8.78022 22.8052 8.70677 22.9413 8.66543 23.0884C8.6241 23.2355 8.61589 23.39 8.64141 23.5406C8.64141 23.611 8.77501 24.4055 9.01407 25.5235C9.04112 25.6621 9.02579 25.8057 8.97007 25.9355C8.91435 26.0653 8.82083 26.1753 8.7017 26.2512C8.58256 26.327 8.44333 26.3653 8.30214 26.3609C8.16096 26.3565 8.02437 26.3097 7.91016 26.2266C5.69532 24.6094 3.33282 22.6406 2.59454 21.2555C2.56351 21.199 2.52825 21.1449 2.48907 21.0938C2.14909 20.61 1.96732 20.0327 1.96876 19.4414V8.10001C1.96876 7.32985 2.2747 6.59123 2.81929 6.04664C3.36388 5.50205 4.1025 5.19611 4.87266 5.19611H22.9711C23.7413 5.19611 24.4799 5.50205 25.0245 6.04664C25.5691 6.59123 25.875 7.32985 25.875 8.10001V16.5375L22.0289 16.5094ZM43.0313 21.5227V32.836C43.036 33.4278 42.8539 34.006 42.5109 34.4883C42.4676 34.5466 42.4321 34.6105 42.4055 34.6781C41.7024 36.0844 39.3047 38.032 37.0899 39.6633C36.9757 39.7464 36.8391 39.7932 36.6979 39.7976C36.5567 39.802 36.4175 39.7638 36.2983 39.6879C36.1792 39.612 36.0857 39.502 36.0299 39.3722C35.9742 39.2424 35.9589 39.0988 35.9859 38.9602C36.225 37.8352 36.3516 37.0406 36.3586 36.9703C36.3832 36.8199 36.3746 36.6659 36.3335 36.5191C36.2924 36.3724 36.2198 36.2363 36.1207 36.1205C36.0216 36.0047 35.8985 35.9119 35.7598 35.8486C35.6212 35.7853 35.4704 35.753 35.318 35.7539H22.0289C21.6464 35.7539 21.2676 35.6784 20.9144 35.5315C20.5611 35.3847 20.2404 35.1696 19.9706 34.8984C19.7007 34.6273 19.4871 34.3055 19.342 33.9515C19.1969 33.5976 19.1232 33.2185 19.125 32.836V21.5227C19.125 20.7525 19.431 20.0139 19.9755 19.4693C20.5201 18.9247 21.2588 18.6188 22.0289 18.6188H40.1274C40.8975 18.6188 41.6361 18.9247 42.1807 19.4693C42.7253 20.0139 43.0313 20.7525 43.0313 21.5227ZM35.7047 31.3664L34.4883 28.336L32.0836 22.3172C32.0678 22.2761 32.049 22.2361 32.0274 22.1977L31.9852 22.1274L31.9219 22.043L31.8586 21.9727L31.7883 21.9094L31.6969 21.8391L31.6406 21.7969L31.5281 21.7336C31.5048 21.7305 31.4812 21.7305 31.4578 21.7336L31.3453 21.6985H30.9375L30.818 21.7336C30.7946 21.7305 30.771 21.7305 30.7477 21.7336L30.6422 21.7969L30.5649 21.832L30.4805 21.9024L30.4102 21.9656L30.3469 22.036L30.2766 22.1203C30.2766 22.1203 30.2766 22.1695 30.2414 22.1906L30.1781 22.3102L27.7172 28.336L26.5008 31.3735C26.4449 31.5043 26.4159 31.645 26.4154 31.7873C26.415 31.9296 26.4432 32.0705 26.4983 32.2017C26.5534 32.3328 26.6343 32.4516 26.7362 32.5509C26.838 32.6502 26.9589 32.728 27.0914 32.7797C27.2167 32.8296 27.3503 32.8559 27.4852 32.857C27.7001 32.8526 27.9086 32.783 28.0831 32.6574C28.2577 32.5319 28.3899 32.3563 28.4625 32.1539L29.4047 29.7985H32.8078L33.75 32.1539C33.8208 32.3574 33.9527 32.5341 34.1276 32.6599C34.3025 32.7857 34.5119 32.8546 34.7274 32.857C34.8599 32.8552 34.991 32.8289 35.1141 32.7797C35.2472 32.7288 35.3687 32.6515 35.4712 32.5523C35.5736 32.4532 35.6549 32.3343 35.7101 32.2029C35.7653 32.0714 35.7933 31.9302 35.7923 31.7876C35.7914 31.6451 35.7616 31.5042 35.7047 31.3735V31.3664ZM30.2344 27.6891H31.95L31.0922 25.5797L30.2344 27.6891Z" fill="#0A3D5C"/>
</svg>
