<svg width="25" height="25" viewBox="0 0 25 25" fill="none" xmlns="http://www.w3.org/2000/svg">
<path d="M2.2002 9.25C2.2002 7.364 2.2002 6.422 2.7862 5.836C3.3722 5.25 4.3142 5.25 6.2002 5.25H18.2002C20.0862 5.25 21.0282 5.25 21.6142 5.836C22.2002 6.422 22.2002 7.364 22.2002 9.25C22.2002 9.721 22.2002 9.957 22.0542 10.104C21.9072 10.25 21.6702 10.25 21.2002 10.25H3.2002C2.7292 10.25 2.4932 10.25 2.3462 10.104C2.2002 9.957 2.2002 9.72 2.2002 9.25ZM2.2002 18.25C2.2002 20.136 2.2002 21.078 2.7862 21.664C3.3722 22.25 4.3142 22.25 6.2002 22.25H18.2002C20.0862 22.25 21.0282 22.25 21.6142 21.664C22.2002 21.078 22.2002 20.136 22.2002 18.25V13.25C22.2002 12.779 22.2002 12.543 22.0542 12.396C21.9072 12.25 21.6702 12.25 21.2002 12.25H3.2002C2.7292 12.25 2.4932 12.25 2.3462 12.396C2.2002 12.543 2.2002 12.78 2.2002 13.25V18.25Z" fill="black"/>
<path d="M7.2002 3.25V6.25M17.2002 3.25V6.25" stroke="black" stroke-width="2" stroke-linecap="round"/>
</svg>
