<svg width="48" height="32" viewBox="0 0 48 32" fill="none" xmlns="http://www.w3.org/2000/svg">
<path d="M32 16C32 17.0505 31.7946 18.0908 31.3955 19.0613C30.9965 20.0319 30.4115 20.9137 29.6741 21.6565C28.9368 22.3993 28.0614 22.9885 27.0979 23.3905C26.1345 23.7924 25.1019 23.9992 24.0592 23.9991C23.0065 24.0149 21.9613 23.8197 20.9842 23.4248C20.0071 23.0299 19.1178 22.4432 18.3678 21.6989C17.6179 20.9545 17.0223 20.0673 16.6158 19.089C16.2093 18.1106 16 17.0606 16 16C16 14.9394 16.2093 13.8894 16.6158 12.911C17.0223 11.9327 17.6179 11.0455 18.3678 10.3011C19.1178 9.55679 20.0071 8.9701 20.9842 8.5752C21.9613 8.1803 23.0065 7.98508 24.0592 8.00089M31.6057 8.41773L26.697 13.3425M31.6057 8.41773C31.169 7.97778 28.225 8.01778 27.603 8.02666M31.6057 8.41773C32.0423 8.85768 32.0018 11.8218 31.9929 12.4493" stroke="#0A3D5C" stroke-width="2.5" stroke-linecap="round" stroke-linejoin="round"/>
</svg>
