<svg width="25" height="25" viewBox="0 0 25 25" fill="none" xmlns="http://www.w3.org/2000/svg">
<path d="M19.5996 3.25H5.59961C5.06918 3.25 4.56047 3.46071 4.1854 3.83579C3.81032 4.21086 3.59961 4.71957 3.59961 5.25V19.25C3.59961 19.7804 3.81032 20.2891 4.1854 20.6642C4.56047 21.0393 5.06918 21.25 5.59961 21.25H19.5996C20.13 21.25 20.6388 21.0393 21.0138 20.6642C21.3889 20.2891 21.5996 19.7804 21.5996 19.25V5.25C21.5996 4.71957 21.3889 4.21086 21.0138 3.83579C20.6388 3.46071 20.13 3.25 19.5996 3.25ZM19.5996 5.25V19.25H5.59961V5.25H19.5996ZM10.5996 17.25L6.59961 13.25L8.00961 11.83L10.5996 14.42L17.1896 7.83L18.5996 9.25" fill="black"/>
</svg>
