<svg width="46" height="45" viewBox="0 0 46 45" fill="none" xmlns="http://www.w3.org/2000/svg">
<path d="M41.2061 16.3311C43.5499 13.9874 42.4811 11.2499 41.2061 9.91865L35.5811 4.29365C33.2186 1.9499 30.4999 3.01865 29.1686 4.29365L25.9811 7.4999H21.1249C17.5624 7.4999 15.4999 9.3749 14.4499 11.5311L6.1249 19.8561V27.3561L4.79365 28.6686C2.4499 31.0311 3.51865 33.7499 4.79365 35.0811L10.4186 40.7061C11.4311 41.7186 12.5186 42.0937 13.5499 42.0937C14.8811 42.0937 16.0999 41.4374 16.8311 40.7061L21.8936 35.6249H28.6249C31.8124 35.6249 33.4249 33.6374 34.0061 31.6874C36.1249 31.1249 37.2874 29.5124 37.7561 27.9374C40.6624 27.1874 41.7499 24.4311 41.7499 22.4999V16.8749H40.6436L41.2061 16.3311ZM37.9999 22.4999C37.9999 23.3436 37.6437 24.3749 36.1249 24.3749H34.2499V26.2499C34.2499 27.0936 33.8936 28.1249 32.3749 28.1249H30.4999V29.9999C30.4999 30.8436 30.1436 31.8749 28.6249 31.8749H20.3561L14.2061 38.0249C13.6249 38.5686 13.2874 38.2499 13.0811 38.0437L7.4749 32.4561C6.93115 31.8749 7.2499 31.5374 7.45615 31.3311L9.8749 28.8936V21.3936L13.6249 17.6436V20.6249C13.6249 22.8936 15.1249 26.2499 19.2499 26.2499C23.3749 26.2499 24.8749 22.8936 24.8749 20.6249H37.9999V22.4999ZM38.5437 13.6686L35.3561 16.8749H21.1249V20.6249C21.1249 21.4686 20.7686 22.4999 19.2499 22.4999C17.7311 22.4999 17.3749 21.4686 17.3749 20.6249V14.9999C17.3749 14.1374 17.6936 11.2499 21.1249 11.2499H27.5186L31.7936 6.9749C32.3749 6.43115 32.7124 6.7499 32.9186 6.95615L38.5249 12.5436C39.0686 13.1249 38.7499 13.4624 38.5437 13.6686Z" fill="#156089"/>
</svg>
