<svg width="8" height="19" viewBox="0 0 14 25" fill="none" xmlns="http://www.w3.org/2000/svg">
<path d="M7 11.75C6.33696 11.75 5.70107 11.4866 5.23223 11.0178C4.76339 10.5489 4.5 9.91304 4.5 9.25C4.5 8.58696 4.76339 7.95107 5.23223 7.48223C5.70107 7.01339 6.33696 6.75 7 6.75C7.66304 6.75 8.29893 7.01339 8.76777 7.48223C9.23661 7.95107 9.5 8.58696 9.5 9.25C9.5 9.5783 9.43534 9.90339 9.3097 10.2067C9.18406 10.51 8.99991 10.7856 8.76777 11.0178C8.53562 11.2499 8.26002 11.4341 7.95671 11.5597C7.65339 11.6853 7.3283 11.75 7 11.75ZM7 2.25C5.14348 2.25 3.36301 2.9875 2.05025 4.30025C0.737498 5.61301 0 7.39348 0 9.25C0 14.5 7 22.25 7 22.25C7 22.25 14 14.5 14 9.25C14 7.39348 13.2625 5.61301 11.9497 4.30025C10.637 2.9875 8.85652 2.25 7 2.25Z" fill="black"/>
</svg>
