<svg width="25" height="25" viewBox="0 0 25 25" fill="none" xmlns="http://www.w3.org/2000/svg">
<path d="M9.5 6.27758C9.23478 6.27758 8.98043 6.37123 8.79289 6.53793C8.60536 6.70464 8.5 6.93074 8.5 7.16649C8.5 7.40225 8.60536 7.62835 8.79289 7.79505C8.98043 7.96176 9.23478 8.05541 9.5 8.05541C9.76522 8.05541 10.0196 7.96176 10.2071 7.79505C10.3946 7.62835 10.5 7.40225 10.5 7.16649C10.5 6.93074 10.3946 6.70464 10.2071 6.53793C10.0196 6.37123 9.76522 6.27758 9.5 6.27758ZM6.67 6.27758C6.8766 5.75708 7.25974 5.30637 7.7666 4.98757C8.27346 4.66876 8.87909 4.49756 9.5 4.49756C10.1209 4.49756 10.7265 4.66876 11.2334 4.98757C11.7403 5.30637 12.1234 5.75708 12.33 6.27758H19.5C19.7652 6.27758 20.0196 6.37123 20.2071 6.53793C20.3946 6.70464 20.5 6.93074 20.5 7.16649C20.5 7.40225 20.3946 7.62835 20.2071 7.79505C20.0196 7.96176 19.7652 8.05541 19.5 8.05541H12.33C12.1234 8.5759 11.7403 9.02662 11.2334 9.34542C10.7265 9.66423 10.1209 9.83543 9.5 9.83543C8.87909 9.83543 8.27346 9.66423 7.7666 9.34542C7.25974 9.02662 6.8766 8.5759 6.67 8.05541H5.5C5.23478 8.05541 4.98043 7.96176 4.79289 7.79505C4.60536 7.62835 4.5 7.40225 4.5 7.16649C4.5 6.93074 4.60536 6.70464 4.79289 6.53793C4.98043 6.37123 5.23478 6.27758 5.5 6.27758H6.67ZM15.5 11.6111C15.2348 11.6111 14.9804 11.7047 14.7929 11.8714C14.6054 12.0382 14.5 12.2643 14.5 12.5C14.5 12.7358 14.6054 12.9619 14.7929 13.1286C14.9804 13.2953 15.2348 13.3889 15.5 13.3889C15.7652 13.3889 16.0196 13.2953 16.2071 13.1286C16.3946 12.9619 16.5 12.7358 16.5 12.5C16.5 12.2643 16.3946 12.0382 16.2071 11.8714C16.0196 11.7047 15.7652 11.6111 15.5 11.6111ZM12.67 11.6111C12.8766 11.0906 13.2597 10.6399 13.7666 10.3211C14.2735 10.0023 14.8791 9.83107 15.5 9.83107C16.1209 9.83107 16.7265 10.0023 17.2334 10.3211C17.7403 10.6399 18.1234 11.0906 18.33 11.6111H19.5C19.7652 11.6111 20.0196 11.7047 20.2071 11.8714C20.3946 12.0382 20.5 12.2643 20.5 12.5C20.5 12.7358 20.3946 12.9619 20.2071 13.1286C20.0196 13.2953 19.7652 13.3889 19.5 13.3889H18.33C18.1234 13.9094 17.7403 14.3601 17.2334 14.6789C16.7265 14.9977 16.1209 15.1689 15.5 15.1689C14.8791 15.1689 14.2735 14.9977 13.7666 14.6789C13.2597 14.3601 12.8766 13.9094 12.67 13.3889H5.5C5.23478 13.3889 4.98043 13.2953 4.79289 13.1286C4.60536 12.9619 4.5 12.7358 4.5 12.5C4.5 12.2643 4.60536 12.0382 4.79289 11.8714C4.98043 11.7047 5.23478 11.6111 5.5 11.6111H12.67ZM9.5 16.9446C9.23478 16.9446 8.98043 17.0383 8.79289 17.205C8.60536 17.3717 8.5 17.5978 8.5 17.8335C8.5 18.0693 8.60536 18.2954 8.79289 18.4621C8.98043 18.6288 9.23478 18.7224 9.5 18.7224C9.76522 18.7224 10.0196 18.6288 10.2071 18.4621C10.3946 18.2954 10.5 18.0693 10.5 17.8335C10.5 17.5978 10.3946 17.3717 10.2071 17.205C10.0196 17.0383 9.76522 16.9446 9.5 16.9446ZM6.67 16.9446C6.8766 16.4241 7.25974 15.9734 7.7666 15.6546C8.27346 15.3358 8.87909 15.1646 9.5 15.1646C10.1209 15.1646 10.7265 15.3358 11.2334 15.6546C11.7403 15.9734 12.1234 16.4241 12.33 16.9446H19.5C19.7652 16.9446 20.0196 17.0383 20.2071 17.205C20.3946 17.3717 20.5 17.5978 20.5 17.8335C20.5 18.0693 20.3946 18.2954 20.2071 18.4621C20.0196 18.6288 19.7652 18.7224 19.5 18.7224H12.33C12.1234 19.2429 11.7403 19.6936 11.2334 20.0125C10.7265 20.3313 10.1209 20.5025 9.5 20.5025C8.87909 20.5025 8.27346 20.3313 7.7666 20.0125C7.25974 19.6936 6.8766 19.2429 6.67 18.7224H5.5C5.23478 18.7224 4.98043 18.6288 4.79289 18.4621C4.60536 18.2954 4.5 18.0693 4.5 17.8335C4.5 17.5978 4.60536 17.3717 4.79289 17.205C4.98043 17.0383 5.23478 16.9446 5.5 16.9446H6.67Z" fill="white"/>
</svg>
