<svg width="67" height="67" viewBox="0 0 67 67" fill="none" xmlns="http://www.w3.org/2000/svg">
<rect width="67" height="67" rx="33.5" fill="#7AC3EB"/>
<path d="M45.8406 39.75H27.0906C25.6375 39.75 24.9109 39.75 24.3141 39.9094C23.5192 40.1225 22.7945 40.5411 22.2128 41.1231C21.631 41.7052 21.2128 42.4301 21 43.225" stroke="black" stroke-width="1.5"/>
<path d="M27.25 25.6875H39.75M27.25 31.1562H35.0625M30.375 49.125C25.9562 49.125 23.7453 49.125 22.3734 47.7516C21 46.3797 21 44.1688 21 39.75V27.25C21 22.8312 21 20.6203 22.3734 19.2484C23.7453 17.875 25.9562 17.875 30.375 17.875H36.625C41.0438 17.875 43.2547 17.875 44.6266 19.2484C46 20.6203 46 22.8312 46 27.25M36.625 49.125C41.0438 49.125 43.2547 49.125 44.6266 47.7516C46 46.3797 46 44.1688 46 39.75V33.5" stroke="black" stroke-width="1.5" stroke-linecap="round"/>
</svg>
