<svg width="45" height="45" viewBox="0 0 45 45" fill="none" xmlns="http://www.w3.org/2000/svg">
<g clip-path="url(#clip0_259_2806)">
<path d="M43.3292 24.1586C43.0119 28.1459 41.5567 31.9584 39.1364 35.143C36.7162 38.3276 33.4326 40.7505 29.6758 42.1239C25.919 43.4973 21.8469 43.7634 17.9434 42.8906C14.0398 42.0178 10.4688 40.0428 7.6547 37.2002C4.84056 34.3577 2.90155 30.767 2.06803 26.8549C1.23451 22.9428 1.54152 18.8736 2.95259 15.1308C4.36366 11.388 6.81947 8.12893 10.0283 5.74078C13.237 3.35263 17.0639 1.93579 21.0543 1.65857" stroke="#0A3D5C" stroke-width="2" stroke-linecap="round" stroke-linejoin="round"/>
<path d="M31.4691 26.0036C30.8886 27.4976 29.9449 28.8233 28.7233 29.8609C27.5017 30.8985 26.0408 31.6153 24.4726 31.9463C22.9044 32.2774 21.2783 32.2124 19.7416 31.7571C18.2048 31.3018 16.8058 30.4706 15.671 29.3387C14.5362 28.2069 13.7014 26.81 13.2422 25.2744C12.783 23.7388 12.7137 22.113 13.0408 20.5439C13.3678 18.9748 14.0808 17.512 15.1152 16.2878C16.1497 15.0635 17.473 14.1164 18.9655 13.5321M22.5012 22.5L30.5369 14.4643M30.5369 14.4643L36.9655 16.0714L43.3941 9.64286L36.9655 8.03572L35.3583 1.60715L28.9298 8.03572L30.5369 14.4643Z" stroke="#0A3D5C" stroke-width="2" stroke-linecap="round" stroke-linejoin="round"/>
</g>
<defs>
<clipPath id="clip0_259_2806">
<rect width="45" height="45" fill="white"/>
</clipPath>
</defs>
</svg>
