<svg width="16" height="16" viewBox="0 0 16 16" fill="none" xmlns="http://www.w3.org/2000/svg">
<g clip-path="url(#clip0_151_2644)">
<path d="M8 0C3.58125 0 0 3.58125 0 8C0 12.4187 3.58125 16 8 16C12.4187 16 16 12.4187 16 8C16 3.58125 12.4187 0 8 0ZM8 14.6656C4.31875 14.6656 1.33438 11.6812 1.33438 8C1.33438 4.31875 4.31875 1.33438 8 1.33438C11.6812 1.33438 14.6656 4.31875 14.6656 8C14.6656 11.6812 11.6812 14.6656 8 14.6656ZM7.33437 7.33437L4.66563 10L5.66563 11L8.66562 8V2.66563H7.33125V7.33437H7.33437Z" fill="#333333"/>
</g>
<defs>
<clipPath id="clip0_151_2644">
<rect width="16" height="16" fill="white"/>
</clipPath>
</defs>
</svg>
