<svg width="45" height="45" viewBox="0 0 45 45" fill="none" xmlns="http://www.w3.org/2000/svg">
<path d="M22.5001 13.125C24.6439 13.125 26.6908 13.19 28.6408 13.32C30.5483 13.4463 32.297 13.7088 33.887 14.1075C35.412 14.4875 36.7364 15.0556 37.8601 15.8119C38.9286 16.5326 39.7876 17.5229 40.3501 18.6825C40.9614 19.9144 41.2501 21.4575 41.2501 23.3063C41.2526 25.1938 40.8939 26.8856 40.1739 28.3819C39.4714 29.8444 38.5108 30.9994 37.292 31.8469C36.104 32.6714 34.688 33.1041 33.242 33.0844C32.287 33.0869 31.4233 32.9556 30.6508 32.6906C29.8847 32.4281 29.1492 32.0836 28.457 31.6631C27.7897 31.2504 27.1362 30.8158 26.4976 30.36C25.8986 29.9255 25.2716 29.5309 24.6208 29.1788C23.9719 28.8188 23.244 28.6249 22.502 28.6144C21.8026 28.6144 21.0958 28.7962 20.3795 29.1769C19.7858 29.4956 19.1608 29.8894 18.5045 30.3581C17.902 30.7894 17.2476 31.2237 16.5414 31.6612C15.8519 32.0841 15.1173 32.4288 14.3514 32.6888C13.5764 32.9538 12.7151 33.085 11.7676 33.0825C10.3187 33.1047 8.89913 32.6726 7.70827 31.8469C6.48827 30.9969 5.52764 29.8419 4.82639 28.3819C4.10639 26.8869 3.74764 25.1938 3.75014 23.3025C3.74264 21.465 4.03139 19.9238 4.64452 18.69C5.20808 17.53 6.06842 16.5396 7.13827 15.8194C8.26327 15.0644 9.58827 14.4975 11.1133 14.1188C12.8364 13.6997 14.5933 13.4343 16.3633 13.3256C18.3133 13.1919 20.3589 13.125 22.5001 13.125Z" stroke="#0A3D5C" stroke-width="2" stroke-linecap="round" stroke-linejoin="round"/>
</svg>
