<svg width="16" height="16" viewBox="0 0 16 16" fill="none" xmlns="http://www.w3.org/2000/svg">
<path d="M2 8C2 8.78793 2.15519 9.56815 2.45672 10.2961C2.75825 11.0241 3.20021 11.6855 3.75736 12.2426C4.31451 12.7998 4.97595 13.2417 5.7039 13.5433C6.43185 13.8448 7.21207 14 8 14C8.78793 14 9.56815 13.8448 10.2961 13.5433C11.0241 13.2417 11.6855 12.7998 12.2426 12.2426C12.7998 11.6855 13.2417 11.0241 13.5433 10.2961C13.8448 9.56815 14 8.78793 14 8C14 7.21207 13.8448 6.43185 13.5433 5.7039C13.2417 4.97595 12.7998 4.31451 12.2426 3.75736C11.6855 3.20021 11.0241 2.75825 10.2961 2.45672C9.56815 2.15519 8.78793 2 8 2C7.21207 2 6.43185 2.15519 5.7039 2.45672C4.97595 2.75825 4.31451 3.20021 3.75736 3.75736C3.20021 4.31451 2.75825 4.97595 2.45672 5.7039C2.15519 6.43185 2 7.21207 2 8Z" stroke="#333333" stroke-width="1.33333" stroke-linecap="round" stroke-linejoin="round"/>
<path d="M9.86667 5.99996C9.7459 5.79047 9.57043 5.61776 9.35905 5.50033C9.14768 5.3829 8.90834 5.32516 8.66667 5.33329H7.33333C6.97971 5.33329 6.64057 5.47377 6.39052 5.72382C6.14048 5.97387 6 6.313 6 6.66663C6 7.02025 6.14048 7.35939 6.39052 7.60943C6.64057 7.85948 6.97971 7.99996 7.33333 7.99996H8.66667C9.02029 7.99996 9.35943 8.14044 9.60948 8.39048C9.85952 8.64053 10 8.97967 10 9.33329C10 9.68691 9.85952 10.0261 9.60948 10.2761C9.35943 10.5262 9.02029 10.6666 8.66667 10.6666H7.33333C7.09166 10.6748 6.85232 10.617 6.64095 10.4996C6.42957 10.3822 6.2541 10.2095 6.13333 9.99996M8 4.66663V11.3333V4.66663Z" fill="#333333"/>
<path d="M9.86667 5.99996C9.7459 5.79047 9.57043 5.61776 9.35905 5.50033C9.14768 5.3829 8.90834 5.32516 8.66667 5.33329H7.33333C6.97971 5.33329 6.64057 5.47377 6.39052 5.72382C6.14048 5.97387 6 6.313 6 6.66663C6 7.02025 6.14048 7.35939 6.39052 7.60943C6.64057 7.85948 6.97971 7.99996 7.33333 7.99996H8.66667C9.02029 7.99996 9.35943 8.14044 9.60948 8.39048C9.85952 8.64053 10 8.97967 10 9.33329C10 9.68691 9.85952 10.0261 9.60948 10.2761C9.35943 10.5262 9.02029 10.6666 8.66667 10.6666H7.33333C7.09166 10.6748 6.85232 10.617 6.64095 10.4996C6.42957 10.3822 6.2541 10.2095 6.13333 9.99996M8 4.66663V11.3333" stroke="#333333" stroke-width="1.33333" stroke-linecap="round" stroke-linejoin="round"/>
</svg>
