<svg width="67" height="67" viewBox="0 0 67 67" fill="none" xmlns="http://www.w3.org/2000/svg">
<rect width="67" height="67" rx="33.5" fill="#7AC3EB"/>
<path d="M45.375 21H21.625C21.4592 21 21.3003 21.0658 21.1831 21.1831C21.0658 21.3003 21 21.4592 21 21.625V45.375C21 45.5408 21.0658 45.6997 21.1831 45.8169C21.3003 45.9342 21.4592 46 21.625 46H45.375C45.5408 46 45.6997 45.9342 45.8169 45.8169C45.9342 45.6997 46 45.5408 46 45.375V21.625C46 21.4592 45.9342 21.3003 45.8169 21.1831C45.6997 21.0658 45.5408 21 45.375 21ZM36.625 44.75H22.25V34.125H36.625V44.75ZM36.625 32.875H22.25V22.25H36.625V32.875ZM44.75 44.75H37.875V22.25H44.75V44.75Z" fill="black"/>
</svg>
