<svg width="20" height="12" viewBox="0 0 20 12" fill="none" xmlns="http://www.w3.org/2000/svg">
<path fill-rule="evenodd" clip-rule="evenodd" d="M0.292467 0.86597C-0.0975323 1.27097 -0.0975323 1.92597 0.292467 2.32997L8.55647 10.893C8.73863 11.0846 8.95788 11.2373 9.20087 11.3416C9.44387 11.4459 9.70553 11.4996 9.96997 11.4996C10.2344 11.4996 10.4961 11.4459 10.7391 11.3416C10.9821 11.2373 11.2013 11.0846 11.3835 10.893L19.7085 2.26797C19.8945 2.07222 19.9991 1.813 20.001 1.54295C20.0028 1.27289 19.9018 1.01226 19.7185 0.81397C19.6279 0.715742 19.5182 0.637147 19.396 0.583051C19.2739 0.528955 19.1419 0.500511 19.0084 0.49948C18.8748 0.498449 18.7424 0.524852 18.6194 0.577056C18.4965 0.629259 18.3855 0.706151 18.2935 0.80297L10.6765 8.69697C10.5854 8.79289 10.4757 8.86927 10.3542 8.92146C10.2326 8.97366 10.1017 9.00057 9.96947 9.00057C9.83719 9.00057 9.7063 8.97366 9.58475 8.92146C9.46321 8.86927 9.35355 8.79289 9.26247 8.69697L1.70547 0.86597C1.61447 0.77008 1.5049 0.693719 1.38344 0.641536C1.26198 0.589354 1.13116 0.562443 0.998968 0.562443C0.866772 0.562443 0.735958 0.589354 0.614496 0.641536C0.493034 0.693719 0.383467 0.77008 0.292467 0.86597Z" fill="black"/>
</svg>
