<svg width="45" height="45" viewBox="0 0 45 45" fill="none" xmlns="http://www.w3.org/2000/svg">
<path d="M22.5 45C34.9264 45 45 34.9264 45 22.5C45 10.0736 34.9264 0 22.5 0C10.0736 0 0 10.0736 0 22.5C0 34.9264 10.0736 45 22.5 45Z" fill="white"/>
<path d="M22.4366 40.4132C32.5178 40.4132 40.6901 32.421 40.6901 22.562C40.6901 12.703 32.5178 4.71074 22.4366 4.71074C12.3555 4.71074 4.1831 12.703 4.1831 22.562C4.1831 32.421 12.3555 40.4132 22.4366 40.4132Z" fill="#092634"/>
<path d="M27.507 32.2314L40.5634 24.2975L42.2113 23.3678V20.2686L40.5634 20.0207L27.6972 27.7686C23.4507 30.3719 19.986 29.4214 18.507 28.3884L33.1479 20.0207C32.0704 14.5661 24.4014 8.9876 16.7958 13.6983C10.7113 17.4669 11.3451 23.9463 12.4225 26.7149L6.14789 30.3099L4.94366 31.6736L7.09859 34.5868L8.49296 33.9669L14.9577 30.3099C19.5718 34.7231 25.2465 33.4298 27.507 32.2314Z" fill="white"/>
<path d="M16.4789 24.5455L28.4577 17.8512C28.4577 17.4174 24.1247 13.2269 19.3078 16.0781C15.4542 18.3591 15.8662 22.8306 16.4789 24.5455Z" fill="#092634"/>
</svg>
